<svg xmlns="http://www.w3.org/2000/svg" viewBox="0 0 41 31"><defs><style>.cls-1{fill:#fff;}</style></defs><g id="Layer_2" data-name="Layer 2"><g id="Layer_1-2" data-name="Layer 1"><g id="Group_12" data-name="Group 12"><path id="Rectangle_2" data-name="Rectangle 2" class="cls-1" d="M3.5,0h34A3.5,3.5,0,0,1,41,3.5h0A3.5,3.5,0,0,1,37.5,7H3.5A3.5,3.5,0,0,1,0,3.5H0A3.5,3.5,0,0,1,3.5,0Z"/><path id="Rectangle_3" data-name="Rectangle 3" class="cls-1" d="M14.5,12h23A3.5,3.5,0,0,1,41,15.5h0A3.5,3.5,0,0,1,37.5,19h-23A3.5,3.5,0,0,1,11,15.5h0A3.5,3.5,0,0,1,14.5,12Z"/><path id="Rectangle_4" data-name="Rectangle 4" class="cls-1" d="M23.5,24h14A3.5,3.5,0,0,1,41,27.5h0A3.5,3.5,0,0,1,37.5,31h-14A3.5,3.5,0,0,1,20,27.5h0A3.5,3.5,0,0,1,23.5,24Z"/></g></g></g></svg>